<svg xmlns="http://www.w3.org/2000/svg" version="1.1" xmlns:xlink="http://www.w3.org/1999/xlink" xmlns:svgjs="http://svgjs.com/svgjs" width="512" height="512" x="0" y="0" viewBox="0 0 512 512" style="enable-background:new 0 0 512 512" xml:space="preserve" class=""><g><g xmlns="http://www.w3.org/2000/svg"><path d="m128 424h336c4.418 0 8-3.582 8-8v-240c0-4.418-3.582-8-8-8h-336c-4.418 0-8 3.582-8 8v240c0 4.418 3.582 8 8 8z" fill="#edf4ff" data-original="#edf4ff" class=""></path><path d="m384 48h-352c-5.828 0-11.293 1.556-16 4.278l-8 27.722v256h322l86-168v-88c0-17.673-14.327-32-32-32z" fill="#dbeaff" data-original="#dbeaff" class=""></path><path d="m336 184-90.028 38.583c-14.17 6.073-30.056 6.827-44.738 2.123l-25.242-8.087c-12.886-4.129-26.986-1.462-37.475 7.087l-98.517 80.294 192 8z" fill="#b3e59f" data-original="#b3e59f" class=""></path><path d="m0 80v232l8.417 6.667 7.583-12.267v-254.122c-9.525 5.544-16 15.908-16 27.722z" fill="#c3ddff" data-original="#c3ddff" class=""></path><path d="m380.498 152.785c-12.317-5.279-26.619-2.323-35.836 7.405l-114.292 120.642c-8.238 8.695-21.626 9.986-31.373 3.023l-25.492-18.208c-8.468-6.048-19.349-7.602-29.17-4.164l-128.335 44.917-7 21.933c0 17.673 14.327 32 32 32h343l27.718-8.333c2.723-4.707 4.282-10.171 4.282-16v-168z" fill="#95d6a4" data-original="#95d6a4" class=""></path><g><path d="m459.992 144h-12c-4.422 0-8-3.582-8-8s3.578-8 8-8h12c4.422 0 8 3.582 8 8s-3.578 8-8 8z" fill="#edf4ff" data-original="#edf4ff" class=""></path></g><g><path d="m461.609 464h-24.711c-4.422 0-8-3.582-8-8s3.578-8 8-8h24.711c4.422 0 8 3.582 8 8s-3.578 8-8 8zm-57.664 0h-24.711c-4.422 0-8-3.582-8-8s3.578-8 8-8h24.711c4.422 0 8 3.582 8 8s-3.578 8-8 8zm-57.664 0h-24.711c-4.422 0-8-3.582-8-8s3.578-8 8-8h24.711c4.422 0 8 3.582 8 8s-3.578 8-8 8zm-57.664 0h-24.711c-4.422 0-8-3.582-8-8s3.578-8 8-8h24.711c4.422 0 8 3.582 8 8s-3.578 8-8 8zm-57.664 0h-24.711c-4.422 0-8-3.582-8-8s3.578-8 8-8h24.711c4.422 0 8 3.582 8 8s-3.578 8-8 8zm-57.664 0h-24.711c-4.422 0-8-3.582-8-8s3.578-8 8-8h24.711c4.422 0 8 3.582 8 8s-3.578 8-8 8zm-57.633-.293c-.359 0-.719-.023-1.086-.074-10.367-1.41-19.641-6.746-26.109-15.027-2.719-3.48-2.102-8.508 1.375-11.23 3.5-2.727 8.516-2.102 11.234 1.379 3.891 4.977 9.445 8.18 15.656 9.027 4.383.594 7.445 4.629 6.852 9.004-.547 4.011-3.984 6.921-7.922 6.921zm377.071-7.328c-2.258 0-4.508-.953-6.086-2.812-2.867-3.363-2.469-8.41.898-11.277 4.805-4.094 7.773-9.789 8.352-16.027.414-4.402 4.367-7.605 8.711-7.223 4.398.41 7.633 4.309 7.227 8.707-.977 10.418-5.914 19.906-13.914 26.723-1.509 1.28-3.353 1.909-5.188 1.909zm11.273-54.32c-4.422 0-8-3.582-8-8v-24.711c0-4.418 3.578-8 8-8s8 3.582 8 8v24.711c0 4.418-3.578 8-8 8zm0-57.661c-4.422 0-8-3.582-8-8v-24.715c0-4.418 3.578-8 8-8s8 3.582 8 8v24.715c0 4.418-3.578 8-8 8zm0-57.664c-4.422 0-8-3.582-8-8v-24.714c0-4.418 3.578-8 8-8s8 3.582 8 8v24.715c0 4.417-3.578 7.999-8 7.999zm0-57.664c-4.422 0-8-3.582-8-8v-24.715c0-4.418 3.578-8 8-8s8 3.582 8 8v24.715c0 4.418-3.578 8-8 8zm-.328-57.648c-3.914 0-7.336-2.875-7.914-6.863-.891-6.203-4.133-11.742-9.141-15.594-3.5-2.695-4.148-7.719-1.453-11.219 2.68-3.504 7.695-4.16 11.219-1.461 8.328 6.41 13.727 15.645 15.219 26 .625 4.375-2.414 8.43-6.789 9.055-.383.055-.766.082-1.141.082z" fill="#edf4ff" data-original="#edf4ff" class=""></path></g><g><path d="m88 420.004c-4.422 0-8-3.582-8-8v-12c0-4.418 3.578-8 8-8s8 3.582 8 8v12c0 4.418-3.578 8-8 8z" fill="#edf4ff" data-original="#edf4ff" class=""></path></g><circle cx="88" cy="136" fill="#ffffff" r="32" data-original="#ffffff" class=""></circle><path d="m56 352c-22.091 0-40-17.909-40-40v-5.6l-16 5.6v24c0 17.673 14.327 32 32 32h352c11.814 0 22.175-6.476 27.718-16z" fill="#78c2a4" data-original="#78c2a4"></path></g></g></svg>